<svg id="logo-77" xmlns="http://www.w3.org/2000/svg" viewBox="0 0 40 40"><defs><style>.cls-1{fill-rule:evenodd;}</style></defs><path class="cls-1" d="M20,0A20,20,0,1,1,0,20,20,20,0,0,1,20,0Zm-.72,1.5c-2.28.32-4.46,2.15-6.14,5.22a21.4,21.4,0,0,0-1.32,2.93,33.06,33.06,0,0,1,7.46-1Zm-9.15,8.63A23,23,0,0,1,11.87,6a14.75,14.75,0,0,1,3-3.84A18.62,18.62,0,0,0,2.18,14.82a14.75,14.75,0,0,1,3.84-3A23,23,0,0,1,10.13,10.13Zm-.48,1.69a33.06,33.06,0,0,0-1,7.46H1.5c.32-2.28,2.15-4.46,5.22-6.14A21.4,21.4,0,0,1,9.65,11.82Zm.48,7.46a31.34,31.34,0,0,1,1.16-8,31.34,31.34,0,0,1,8-1.16v3.12a10.65,10.65,0,0,1-6,6ZM8.68,20.72H1.5c.32,2.28,2.15,4.46,5.22,6.14a21.4,21.4,0,0,0,2.93,1.32A33.06,33.06,0,0,1,8.68,20.72Zm2.61,8a31.34,31.34,0,0,1-1.16-8h3.12a10.65,10.65,0,0,1,6,6v3.12A31.34,31.34,0,0,1,11.29,28.71Zm-1.16,1.16A23,23,0,0,1,6,28.13a14.75,14.75,0,0,1-3.84-2.95A18.62,18.62,0,0,0,14.82,37.82a14.75,14.75,0,0,1-3-3.84A23,23,0,0,1,10.13,29.87Zm9.15,8.63c-2.28-.32-4.46-2.15-6.14-5.22a21.4,21.4,0,0,1-1.32-2.93,33.06,33.06,0,0,0,7.46,1Zm5.9-.68A14.75,14.75,0,0,0,28.13,34a23,23,0,0,0,1.74-4.11A23,23,0,0,0,34,28.13a14.75,14.75,0,0,0,3.84-2.95A18.62,18.62,0,0,1,25.18,37.82Zm3-7.47a21.4,21.4,0,0,1-1.32,2.93c-1.68,3.07-3.86,4.9-6.14,5.22V31.32A33.06,33.06,0,0,0,28.18,30.35Zm2.17-2.17a21.4,21.4,0,0,0,2.93-1.32c3.07-1.68,4.9-3.86,5.22-6.14H31.32A33.06,33.06,0,0,1,30.35,28.18Zm-.48-7.46a31.34,31.34,0,0,1-1.16,8,31.34,31.34,0,0,1-8,1.16V26.75a10.68,10.68,0,0,1,6-6Zm1.45-1.44H38.5c-.32-2.28-2.15-4.46-5.22-6.14a21.4,21.4,0,0,0-2.93-1.32A33.06,33.06,0,0,1,31.32,19.28Zm-2.61-8a31.34,31.34,0,0,1,1.16,8H26.75a10.68,10.68,0,0,1-6-6V10.13A31.34,31.34,0,0,1,28.71,11.29Zm1.16-1.16A23,23,0,0,1,34,11.87a14.75,14.75,0,0,1,3.84,3A18.62,18.62,0,0,0,25.18,2.18,14.75,14.75,0,0,1,28.13,6,23,23,0,0,1,29.87,10.13ZM20.72,1.5c2.28.32,4.46,2.15,6.14,5.22a21.4,21.4,0,0,1,1.32,2.93,33.06,33.06,0,0,0-7.46-1Z"/></svg>